<?xml version="1.0" encoding="UTF-8"?>
<svg width="150px" height="150px" viewBox="0 0 150 150" version="1.1" xmlns="http://www.w3.org/2000/svg" xmlns:xlink="http://www.w3.org/1999/xlink">
    <!-- Generator: Sketch 55 (78076) - https://sketchapp.com -->
    <title>DAL</title>
    <desc>Created with Sketch.</desc>
    <defs>
        <polygon id="path-1" points="0 0.0863090278 106 0.0863090278 106 105.804931 0 105.804931"></polygon>
    </defs>
    <g id="DAL" stroke="none" stroke-width="1" fill="none" fill-rule="evenodd">
        <g id="Group" transform="translate(22.000000, 22.000000)">
            <g id="Group-4">
                <mask id="mask-2" fill="white">
                    <use xlink:href="#path-1"></use>
                </mask>
                <g id="Clip-2"></g>
                <path d="M3.67558681,71.0082222 C2.82832292,69.7474479 0,64.9559167 0,57.2284063 C0,54.3264722 0.4008125,51.0154444 1.44480208,47.335441 C1.45326736,47.3128056 1.45621181,47.2885139 1.46044444,47.2620139 L1.91536111,45.4784167 L2.02817014,45.5897535 C2.09791667,45.3786736 2.17226389,45.1591285 2.24495486,44.937191 C2.61153819,43.8346806 2.99376389,42.6800903 3.08228125,42.4069931 C3.14209028,42.1710694 3.47738889,40.849566 3.74110069,39.9296111 C3.82096875,39.6500729 3.88795486,39.4226146 3.95806944,39.2257049 L3.975,39.0952292 C4.06057292,38.4099097 4.16896528,37.7523785 4.29741667,37.1161944 C4.34287153,36.7746389 4.40157639,36.4444931 4.44850347,36.165691 L4.4685625,36.0436806 L4.51843403,35.9310556 C4.54843056,35.854684 4.57695486,35.7941389 4.59701389,35.7475799 C5.91483681,30.3585104 8.38504167,27.1715174 9.77426736,25.7267153 L9.79138194,25.7088646 L9.80849653,25.6910139 C10.0795694,25.4392639 10.8440208,24.7261563 11.7225694,24.1790417 C12.1248542,23.6506979 13.4369722,21.9499132 14.6406979,20.6026458 C15.0516319,20.1484653 15.4425069,19.7349549 15.8118507,19.4003924 C16.0100486,18.9440035 16.4892569,17.9719688 17.3878646,16.8486632 C18.5772361,15.3589583 20.524066,13.6024132 23.492434,12.5149931 C25.771434,10.9667674 28.1847743,9.599625 30.6923368,8.41724653 C31.1713611,7.92165972 32.9899236,6.12242014 35.8154861,4.31324306 C39.1001979,2.21587847 43.7684306,0.0892534722 49.2881597,0.0863090278 C49.4977674,0.0863090278 49.7101354,0.0899895833 49.9213993,0.0964305556 L51.9322708,0.155503472 L49.4420069,3.50149653 C50.767191,3.40175347 52.1065451,3.35040972 53.4584132,3.35040972 C60.5957465,3.35040972 67.4104792,4.74460417 73.6118472,7.26265625 L73.6418438,7.27480208 L73.6688958,7.28768403 C73.9127326,7.40398958 74.339309,7.61635764 74.782816,7.89019097 C75.1580486,8.12997917 75.5402743,8.37234375 75.8768611,8.74463194 C76.3019653,8.79321528 77.2117986,8.94062153 78.2272639,9.39645833 L78.2587326,9.40915625 L78.2844965,9.42351042 C84.9994861,12.9435938 90.8471528,17.8422292 95.4112257,23.7377431 L95.4526319,23.7896389 L95.4853889,23.8476076 C95.5567917,23.9657535 95.7364028,24.3282882 95.890434,25.0925556 C95.9675417,25.141875 96.07575,25.2095972 96.1970243,25.2909375 C96.4438056,25.4563785 96.7203993,25.6431667 96.9885278,25.9135035 L97.0487049,25.9762569 L97.0998646,26.0482118 C102.715104,34.2015625 106,44.023125 106,54.5846632 C106,64.5943021 103.048931,73.9429132 97.9528333,81.8331042 L97.9327743,81.8616285 L97.9143715,81.8872083 C97.8330312,81.9921042 97.7960417,82.0270694 97.7218785,82.0977361 C97.6561806,82.1617778 97.5733681,82.2331806 97.4679201,82.3128646 C97.3138889,82.4321146 97.1112743,82.5690313 96.8545556,82.7215903 C96.8346806,82.819309 96.8059722,82.9499688 96.7689826,83.0946146 C96.6848819,83.4140868 96.5893715,83.7871111 96.3354132,84.1963889 L96.3212431,84.2192083 L96.301184,84.2479167 C86.7823472,97.3076319 71.1329931,105.815972 53.4584132,105.815972 C30.342684,105.814684 10.7026875,91.2630556 3.67558681,71.0082222" id="Fill-1" fill="#FFFFFF" mask="url(#mask-2)"></path>
                <path d="M96.2384306,26.6437257 C95.9360729,26.3314306 95.2257257,25.9164479 95.2257257,25.9164479 C94.9647743,25.8165208 94.9134306,25.578941 94.9134306,25.578941 C94.770809,24.6961597 94.5840208,24.3794479 94.5840208,24.3794479 C90.1097535,18.6039201 84.3802326,13.8022674 77.7995833,10.3513785 C76.6241979,9.82285069 75.5658542,9.76653819 75.5658542,9.76653819 C75.32625,9.77371528 75.2150972,9.58471875 75.2150972,9.58471875 C74.8269826,9.03778819 73.6574861,8.44227431 73.219684,8.23340278 C67.1366458,5.76503819 60.4601181,4.39881597 53.4584132,4.39881597 C51.3334444,4.39881597 49.2452812,4.52781944 47.1913472,4.77184028 L49.8899306,1.14336458 C39.0902604,0.820947917 31.3397465,9.25806944 31.3397465,9.25806944 L31.3439792,9.26947917 C28.7537882,10.4754132 26.2736458,11.8802813 23.9401736,13.4778264 L23.9458785,13.4642083 C18.3148125,15.4859375 16.6889271,20.0259028 16.6889271,20.0259028 C15.2627118,21.2189549 12.4358611,24.9722014 12.4358611,24.9722014 C11.627059,25.4385278 10.7840278,26.2094201 10.5302535,26.4527049 C9.23525,27.8003403 6.85889931,30.8426875 5.59389236,36.0821424 C5.56095139,36.1691875 5.51972917,36.2512639 5.48108333,36.3395972 C5.43268403,36.6312813 5.37563542,36.9614271 5.32999653,37.2880764 C5.20725,37.9106424 5.09885764,38.5552917 5.01328472,39.2284653 L5.06757292,39.1550382 C5.04769792,39.2956354 5.03187153,39.379184 5.03187153,39.379184 C4.8991875,39.4704618 4.08909722,42.6986771 4.08909722,42.6986771 C3.95806944,43.1081389 2.48731944,47.5301424 2.48731944,47.5301424 L2.47738194,47.520941 C2.47462153,47.5301424 2.47462153,47.5415521 2.47462153,47.5494653 C-1.39621875,61.0749549 3.74551736,69.2724722 4.62112153,70.5339826 C11.4601458,90.431434 30.7407361,104.768302 53.4584132,104.768302 C70.7921736,104.768302 86.1261042,96.4246667 95.4541042,83.6301354 C95.7192882,83.2144167 95.8534444,82.3636563 95.8534444,82.3636563 C95.8633819,82.0863264 96.0729896,81.957875 96.0729896,81.957875 C96.7919861,81.5712326 97.0400556,81.3067847 97.0713403,81.2646424 C102.066222,73.5363958 104.951594,64.388191 104.951594,54.5846632 C104.951594,44.2406458 101.738285,34.6301632 96.2384306,26.6437257" id="Fill-3" fill="#061922" mask="url(#mask-2)"></path>
            </g>
            <path d="M31.8474792,16.9237465 C31.9816354,16.7838854 32.1041979,16.6576424 32.2096458,16.5393125 C32.3837361,16.3595174 32.4509063,16.3153507 32.4722535,16.3282326 C32.4978333,16.3059653 32.5092431,16.2925313 32.5092431,16.2925313 C32.5548819,13.7194549 33.1367778,11.6528229 33.1367778,11.6528229 C37.8178924,5.11192361 45.5411701,3.37893403 45.5411701,3.37893403 C46.501059,3.10307639 45.8819896,3.52726042 45.8819896,3.52726042 C41.0185035,8.97577083 41.5247639,13.4778264 41.5247639,13.4778264 L46.1674167,30.4133507 C46.1674167,30.4133507 42.4047847,29.0898229 39.5065313,23.1392847 C38.1658889,35.0103646 49.3623229,44.6370417 49.3623229,44.6370417 C49.8499965,45.0534965 49.0827847,44.6013403 49.0827847,44.6013403 C46.2785694,43.201625 43.0509063,40.2503715 42.168125,39.4218785 C42.4047847,40.3366806 47.8545833,67.7321597 47.8704097,67.8127639 C47.8961736,67.9402951 47.9701528,68.2049271 48.0272014,68.3810417 L49.9156944,63.6899896 L51.4758819,77.5228056 C44.3788507,84.1279306 36.8195417,81.5121597 36.3530313,81.3402778 C36.5342986,81.6371146 36.6769201,81.8537153 36.6769201,81.8537153 C36.6769201,81.8537153 42.8184792,93.909375 67.8210451,92.6314861 C67.8210451,92.6314861 68.4202396,92.6278056 68.3289618,92.7056493 C68.3388993,92.7249722 68.3061424,92.7542326 68.1948056,92.7932465 C67.7227743,92.9651285 66.9881354,93.0829063 66.9881354,93.0829063 C36.7994826,101.147188 21.1560174,75.4226806 20.4800833,74.2743472 C20.2888785,74.0121076 18.8254896,71.9467639 18.00675,69.8679861 C17.9824583,69.8072569 17.946941,69.6033542 18.0866181,69.7618021 C18.0866181,69.7618021 21.292934,73.1006181 30.355566,73.9272708 C30.4240243,73.9208299 30.4611979,73.9114444 30.4611979,73.9114444 C23.452316,66.0983611 20.4743785,60.4395069 20.0349201,59.5731042 C20.0349201,59.5710799 20.0321597,59.5710799 20.0264549,59.5710799 C20.0264549,59.5710799 19.1850799,58.3036806 18.1865451,54.7151389 C18.1865451,54.7151389 18.212125,54.5353438 18.2976979,54.7151389 C18.6387014,55.4282465 20.9592917,58.8484028 23.7804375,59.6130382 L23.7861424,59.6130382 C21.3928611,55.749191 19.9037083,49.6361563 19.7126875,48.7432535 C22.9773403,53.3117431 28.7552604,53.6404167 28.7552604,53.6404167 C28.7466111,53.6247743 28.7396181,53.6133646 28.7254479,53.5955139 C28.7396181,53.6153889 28.7438507,53.6282708 28.7438507,53.6282708 C19.2362396,44.1436632 21.2844688,33.8178646 25.1438993,26.3628993 C27.4160903,21.9605868 30.3198646,18.5588333 31.8474792,16.9237465" id="Fill-5" fill="#FFFFFF"></path>
            <path d="M60.2961493,79.7072153 L54.0576076,86.2716701 C54.0633125,86.2674375 54.0675451,86.2637569 54.0717778,86.2587882 L61.7709479,80.3496562 L57.7858264,66.6038854 L59.525809,50.0732222 L56.4851181,65.859309 L60.2961493,79.7072153" id="Fill-6" fill="#BBC4CA"></path>
            <path d="M61.6824306,39.2621424 C61.1389965,42.0854965 60.2503264,44.9758368 58.7101979,46.2658715 C58.8242951,46.2088229 58.9610278,46.1346597 59.1207639,46.0411736 C59.5830417,45.7666042 60.1991667,45.3310104 60.8165799,44.6926181 C62.0490139,43.4125208 63.2856806,41.3181007 63.2856806,38.0284201 C63.2856806,36.5571181 63.0388993,34.8462118 62.4327118,32.8629444 C62.3714306,33.9991319 62.1874028,36.6005486 61.6824306,39.2621424" id="Fill-7" fill="#BBC4CA"></path>
            <path d="M61.6169167,18.1709028 C63.7904687,14.8869271 67.3618958,14.6031562 68.8766285,14.5875139 C67.5687431,14.2051042 66.3521354,14.0645069 65.2682118,14.0645069 C62.9732014,14.0639549 61.2659757,14.6951701 60.5600451,15.0087535 C60.4571736,15.0553125 60.3760174,15.0943264 60.3162083,15.1235868 C60.8752847,15.9046007 61.4257118,17.5676597 61.6169167,18.1709028 Z M61.5825035,18.4255972 L61.6881354,18.3948646 L61.5825035,18.4255972 L61.5825035,18.4255972 Z" id="Fill-8" fill="#BBC4CA"></path>
            <path d="M56.1569965,26.8492847 L56.2512188,26.7977569 L56.1569965,26.8492847 Z M58.86975,25.0664236 C58.9240382,25.0734167 58.9639722,25.1183194 58.9667326,25.1711354 C58.9724375,25.4755174 58.9753819,25.7808194 58.9753819,26.0875938 C58.9724375,33.158309 57.0970104,40.9001736 56.3794861,43.5901076 C59.0894792,37.397941 59.8182292,31.6115556 59.8182292,27.169309 C59.8182292,24.5664201 59.5686875,22.4269132 59.3176736,20.9379444 C59.1864618,20.1620833 59.05525,19.5658333 58.9610278,19.1701736 C58.273684,24.4929931 56.2497465,26.9076215 56.239625,26.9190313 C56.2169896,26.9468194 56.179816,26.9617257 56.147059,26.9574931 C56.1085972,26.9539965 56.0771285,26.9333854 56.0600139,26.9011806 C52.7296632,20.7546528 47.8188819,17.0049028 45.5739271,15.5174063 C45.1859965,15.2592153 44.877934,15.0702188 44.672559,14.9467361 C51.0080833,28.7133021 52.8621632,39.3340972 53.3386111,42.8355938 C53.3529653,42.4320208 53.3614306,42.0218229 53.3614306,41.6062882 C53.3614306,35.3184271 51.7526597,27.7362986 50.9468021,24.3424583 C50.6786736,23.2106875 50.5005347,22.5461632 50.5005347,22.544691 C50.488941,22.4996042 50.5062396,22.451941 50.5459896,22.425625 C50.5831632,22.3998611 50.6345069,22.4026215 50.674441,22.4305938 C53.5211667,24.644816 55.5209965,30.9262361 55.8745139,32.0915 C56.40525,31.4317604 57.1040035,29.785816 57.6689688,28.2738438 C58.2821493,26.6367326 58.7514201,25.1440833 58.7527083,25.141875 C58.7670625,25.0955 58.809941,25.0656875 58.8555799,25.0656875 C58.8612847,25.0656875 58.8655174,25.0664236 58.86975,25.0664236 Z" id="Fill-9" fill="#BBC4CA"></path>
            <path d="M5.56812847,53.6153889 C5.57107292,60.1619931 6.69640278,67.0133472 12.3302292,75.7541146 L12.3388785,75.7662604 C17.6587535,86.9741042 27.46725,93.0072708 32.0399722,95.3214201 C33.5618819,96.0915764 34.4974792,96.4489583 34.5061285,96.453191 C41.7715451,99.8777639 48.6063368,101.13633 54.7305972,101.13633 C67.5558611,101.137066 77.2773125,95.6088715 81.3338368,92.8455104 C82.6886493,91.9255556 83.4076458,91.3149514 83.4076458,91.3134792 L83.4788646,91.3962917 L83.4091181,91.3129271 C83.6787188,91.0909896 83.8811493,90.914875 84.0294757,90.7831111 C83.9481354,90.8270937 83.8669792,90.8764132 83.7871111,90.9240764 C83.4961632,91.0966944 83.2293229,91.2700486 83.2280347,91.2720729 C73.2609063,97.1213958 64.0757118,98.9084896 56.5793403,98.9084896 C44.8322951,98.9084896 37.2332361,94.5291806 37.226059,94.525684 C12.3230521,81.4657847 11.9594132,58.83 11.9594132,58.8143576 C11.9594132,58.763566 11.9908819,58.7195833 12.0420417,58.7074375 C12.0919132,58.6952917 12.1404965,58.7181111 12.1647882,58.7628299 C15.3780972,64.9872014 19.2734132,67.111066 21.007691,67.7857118 C21.2587049,67.8826944 21.4626076,67.9489444 21.6138785,67.9931111 C14.3725694,58.8677257 12.2987604,51.1886146 12.2987604,45.3985486 C12.2987604,37.729559 15.9299965,33.3879757 15.9386458,33.3773021 C15.9701146,33.3393924 16.0242187,33.3265104 16.0685694,33.3487778 C16.1154965,33.370125 16.138316,33.4185243 16.1298507,33.4678437 C15.6107083,36.1706597 15.4137986,38.5560278 15.4110382,40.6219236 C15.4137986,45.6738542 16.5976493,48.8183368 17.18525,50.0697257 C17.2023646,50.1061632 17.2194792,50.1416806 17.2365937,50.1746215 C17.0170486,48.3354479 16.9185937,46.5597639 16.9185937,44.8495937 C16.9185937,27.7791771 26.9210556,17.2623576 29.0318542,15.2321632 C27.4516076,15.8946632 25.5320139,17.5919514 23.9686979,19.1935451 C22.2371806,20.9637083 20.9307674,22.6081806 20.9278229,22.610941 C20.8992986,22.6466424 20.8508993,22.6615486 20.8080208,22.6466424 C20.7653264,22.6302639 20.7338576,22.5888576 20.7368021,22.5424826 C20.7509722,21.1882222 21.5240729,19.4830208 21.9432882,18.6580243 C20.656934,19.8275208 19.5884687,21.6617257 18.828434,23.2649757 C17.986875,25.0406597 17.5218368,26.5253958 17.5218368,26.5288924 L17.4992014,26.5682743 C13.5368993,31.0517431 11.6198819,35.8390417 10.9110069,37.9485521 C10.672875,38.6522743 10.5731319,39.0538229 10.5731319,39.0538229 C10.4818542,39.4174618 10.4303264,39.5957847 10.3819271,39.6877986 C10.3591076,39.7135625 10.3591076,39.7626979 10.2564201,39.7776042 C10.1736076,39.7726354 10.1507882,39.7148507 10.1421389,39.6957118 C10.1309132,39.670684 10.1279687,39.650809 10.1252083,39.6287257 C10.1195035,39.584375 10.1167431,39.5330312 10.1167431,39.4754306 C10.1167431,39.2671111 10.1421389,38.9811319 10.1421389,38.9811319 C10.2179583,35.7584375 11.5571285,32.1349306 12.0963299,30.7955764 C8.29946875,34.8791528 7.36957639,40.4159965 7.36957639,44.8409444 C7.36957639,46.9326042 7.57789583,48.7739861 7.78603125,50.0910729 C7.99416667,51.4083437 8.19972569,52.1970868 8.19972569,52.1991111 L8.20248611,52.2263472 C8.21260764,54.8285 8.72457292,58.0447535 9.23230556,60.6091806 C9.74298264,63.1723194 10.2450104,65.0779271 10.2450104,65.0749826 C10.4132118,65.5720417 10.4761493,65.8002361 10.4818542,65.9250069 C10.4789097,65.9478264 10.4789097,65.9684375 10.4675,65.9991701 C10.4588507,66.0299028 10.4047465,66.077566 10.3534028,66.0740694 C10.2693021,66.0633958 10.2591806,66.0306389 10.2306562,66.0070833 C10.2080208,65.9805833 10.1822569,65.9491146 10.1594375,65.9128611 C10.1110382,65.8416424 10.05675,65.7481562 10.0054062,65.6561424 C9.90547917,65.4785556 9.81420139,65.302441 9.81420139,65.3002326 C7.16272917,61.2383715 5.86919792,54.5382882 5.57236111,52.8481771 C5.57107292,53.1034236 5.56812847,53.3586701 5.56812847,53.6153889" id="Fill-10" fill="#BBC4CA"></path>
            <path d="M63.984434,21.643875 L63.9303299,21.5940035 L63.9559097,21.524809 C65.1739896,18.2713819 70.8948611,15.3788333 72.0060208,14.8363194 C69.3444271,13.3421979 66.7914097,12.8937222 64.6719618,12.8929861 C63.0687118,12.8929861 61.7181319,13.1524653 60.7681806,13.4106563 C59.8182292,13.6688472 59.2762674,13.9242778 59.2762674,13.9242778 L59.2762674,13.9248299 L59.1978715,13.9612674 L59.1465278,13.8940972 C58.161059,12.6646076 56.8787535,11.4402708 55.8434132,10.5260208 C54.8505833,9.64968056 54.0888924,9.05839931 54.0233785,9.00907986 C53.8778125,8.91430556 53.7867187,8.85946528 53.775125,8.72236458 C53.775125,8.64323264 53.8321736,8.58912847 53.8750521,8.56630903 C53.920691,8.54054514 53.9690903,8.52784722 54.0233785,8.51717361 C54.1288264,8.49711458 54.2543333,8.49288194 54.3656701,8.49288194 C54.504059,8.49288194 54.6196285,8.50079514 54.6481528,8.50226736 C77.4628125,8.50852431 89.5920833,24.8095208 89.5948437,24.8137535 C89.7531076,24.996309 89.8315035,25.1738958 89.8315035,25.3437535 C89.8116285,25.8356597 89.2553125,26.0697431 88.7518125,26.2280069 C88.2398472,26.3835104 87.7321146,26.4398229 87.7321146,26.4398229 C85.5298542,26.7465972 83.4845694,26.8798333 81.5962604,26.8798333 C69.7353021,26.8798333 63.9986042,21.6560208 63.984434,21.643875" id="Fill-11" fill="#0064B1"></path>
            <path d="M56.2085243,87.5480868 C56.1698785,87.5353889 56.1426424,87.5033681 56.1341771,87.4639861 C56.1257118,87.4247882 56.1426424,87.3833819 56.1726389,87.3583542 L63.8276424,81.1996806 L59.9439201,66.8164375 L59.9424479,66.7757674 L61.0149618,57.1306875 C61.0177222,57.0970104 61.0348368,57.0684861 61.0635451,57.0508194 C61.089125,57.0329688 61.1233542,57.027816 61.1533507,57.0372014 C62.8948056,57.5727222 63.7106007,59.9404236 64.1327604,62.1524375 C64.4295972,63.7363646 64.5136979,65.2533056 64.5392778,65.9919931 C66.5718646,61.5940972 67.2351007,58.061316 67.2351007,55.3220625 C67.2351007,51.4411007 65.9042118,49.1519792 65.2481528,48.2533715 C65.0298958,47.9539583 64.8872743,47.8133611 64.8872743,47.8133611 C64.8458681,47.7714028 64.8458681,47.7034965 64.8872743,47.660066 C64.9286806,47.6179236 64.9971389,47.6158993 65.0398333,47.6571215 C74.1567535,56.2933611 75.9880139,68.3810417 75.9880139,76.7154757 C75.9880139,82.3443333 75.1523438,86.2674375 75.1523438,86.2724063 L75.1493993,86.2845521 C74.8485139,87.1730382 73.928559,87.3984722 73.9142049,87.4027049 C70.2031007,88.2256771 66.9312708,88.4952778 64.2440972,88.4952778 C59.2022882,88.4952778 56.2169896,87.5502951 56.2085243,87.5480868" id="Fill-12" fill="#0064B1"></path>
            <path d="M77.6424236,86.502809 C77.4999861,86.390184 77.4114688,86.1989792 77.4144132,85.9337951 C77.4144132,85.8117847 77.4300556,85.6732118 77.4685174,85.5099792 C77.4685174,85.5072188 77.7651701,84.3667986 78.0620069,82.3999097 C78.3557153,80.4332049 78.6523681,77.6468403 78.6523681,74.372066 C78.6523681,65.6896354 76.5700938,53.5776632 66.8968576,44.1628021 C66.8598681,44.1386944 66.7244236,44.0444722 66.634434,43.9460174 C66.6031493,43.9053472 66.5674479,43.8703819 66.5632153,43.7905139 C66.5604549,43.7391701 66.6003889,43.6771528 66.6445556,43.6600382 C66.6887222,43.6379549 66.7257118,43.6342743 66.7715347,43.6342743 C66.8685174,43.6342743 66.9995451,43.6572778 67.2078646,43.7128542 C67.2165139,43.7170868 69.7864618,44.4966285 71.5923264,46.5225903 C71.5765,46.3963472 71.5551528,46.2373472 71.5295729,46.0490868 C71.4497049,45.5349132 71.3127882,44.8096597 71.0702396,43.9653403 C70.5882708,42.2772535 69.6924236,40.1171354 68.0551285,38.2301146 C68.052184,38.2288264 67.8254618,37.9912465 67.7014271,37.8258056 C67.6642535,37.762316 67.6300243,37.7394965 67.6187986,37.6467465 C67.6187986,37.6261354 67.6243194,37.5884097 67.6528438,37.5598854 C67.6843125,37.5298889 67.7213021,37.524184 67.7411771,37.524184 C67.8210451,37.530441 67.8539861,37.556941 67.9323819,37.6025799 C68.0050729,37.6489549 68.1035278,37.7174132 68.2362118,37.8171563 C68.8153472,38.0974306 93.1119826,49.8536771 93.9634792,73.5949167 C93.9634792,73.596941 93.9763611,73.7323854 93.9763611,73.9464097 C93.9736007,74.5240729 93.8837951,75.6814236 93.1163993,76.3411632 C92.8808438,76.6343194 87.1244549,83.7955764 78.6523681,86.5455035 C78.6466632,86.5469757 78.3956493,86.6439583 78.1131667,86.6454306 C77.9549028,86.6439583 77.7822847,86.615434 77.6424236,86.502809" id="Fill-13" fill="#0064B1"></path>
            <path d="M95.9189583,69.7901424 C95.8534444,69.6204688 95.8192153,69.3845451 95.8090938,69.0678333 C95.2571944,46.2244653 70.2130382,31.8439826 63.9531493,28.6148472 C63.0602465,28.1534896 62.5554583,27.9195903 62.5554583,27.9195903 L62.1147118,27.7162396 L62.5981528,27.7112708 C62.6180278,27.7112708 62.6380868,27.7112708 62.6581458,27.7112708 C65.9413854,27.7134792 67.952441,29.6952743 68.548691,30.3793056 L68.548691,30.3785694 C68.548691,29.7779028 68.4301771,29.1468715 68.3118472,28.666191 C68.1891007,28.1847743 68.0707708,27.858309 68.0707708,27.858309 L67.9896146,27.6343472 L68.2104479,27.719184 C70.8321076,28.7177187 74.2108576,29.0491528 77.5228056,29.0484167 C80.7232326,29.0484167 83.8669792,28.7388819 86.2059722,28.4302674 C88.5466215,28.1207326 90.0797569,27.81175 90.0825174,27.81175 L90.0882222,27.8104618 L90.0939271,27.8097257 C90.2166736,27.7990521 90.3337153,27.7940833 90.4419236,27.7940833 C91.7741007,27.7911389 92.1992049,28.540684 92.2562535,28.6704236 C95.3856458,32.1606944 99.2649514,40.2540521 99.9125451,49.9727431 C99.9924132,51.1928472 100.029587,52.377434 100.029587,53.5198785 C100.023882,62.0462535 97.9843021,68.2614236 96.784809,69.7353021 C96.6092465,69.9450937 96.4509826,70.0775938 96.2640104,70.0832986 C96.1015139,70.0832986 95.9817118,69.9585278 95.9189583,69.7901424" id="Fill-14" fill="#0064B1"></path>
            <path d="M42.6073993,5.76503819 C42.6215694,5.74571528 42.6431007,5.72804861 42.6502778,5.70449306 L42.6431007,5.7074375 C42.3648507,5.78656944 37.3756736,7.25842361 35.8981146,14.8670521 C35.8981146,14.8670521 35.8867049,15.0059931 35.9680451,14.8777257 C36.4172569,14.1373819 37.9748681,11.7775937 39.4095486,12.4778194 C39.4095486,12.4778194 39.4181979,12.4202187 39.4296076,12.3217639 C39.5065313,11.6778507 39.9743299,9.03337153 42.6073993,5.76503819" id="Fill-15" fill="#061922"></path>
            <path d="M38.7820139,74.5362188 C37.7037951,72.3696597 30.7791979,57.2403681 30.7791979,57.2403681 C28.6227604,57.9284479 25.9512292,56.1728229 25.9512292,56.1728229 C25.9512292,56.1757674 25.9512292,56.1807361 25.9512292,56.1807361 C29.3599757,65.2304861 37.3800903,73.1455208 38.6592674,74.5803854 C38.6706771,74.5897708 38.6736215,74.5917951 38.6793264,74.6004444 C38.8961111,74.8385764 38.8961111,74.7507951 38.8961111,74.7507951 C38.8648264,74.7066285 38.8333576,74.6317292 38.7820139,74.5362188" id="Fill-16" fill="#061922"></path>
            <path d="M31.9159375,25.2703264 C25.6630417,39.5595312 39.7319653,45.4508125 39.9174653,45.5235035 L39.9231701,45.5262639 L39.1785938,42.2351111 L38.7534896,40.3502986 C38.3968438,40.2347292 38.0733229,40.1064618 37.7521944,39.9638403 C37.6438021,39.9174653 37.5383542,39.8639132 37.4327222,39.81625 C37.3029826,39.7527604 37.1702986,39.690559 37.0477361,39.6265174 C30.9002882,36.3574479 31.4965382,28.5314826 31.8760035,25.989875 C31.8760035,25.969816 31.8760035,25.9541736 31.8789479,25.9363229 C31.8931181,25.8628958 31.9045278,25.7902049 31.9159375,25.7232187 C31.9529271,25.4849028 31.9843958,25.3229583 32.0042708,25.2368333 C32.0101597,25.1981875 32.0156806,25.1726076 32.0156806,25.1726076 C32.0156806,25.1654306 32.0156806,25.1654306 32.0156806,25.1626701 C32.0327951,24.9722014 31.9444618,25.1895382 31.9159375,25.2703264" id="Fill-17" fill="#061922"></path>
            <path d="M41.1725347,65.4941979 L40.1598299,47.5387917 L46.1974132,67.5588056 C46.1974132,67.5588056 44.2161701,62.8278194 41.1725347,65.4941979" id="Fill-18" fill="#BBC4CA"></path>
            <path d="M41.5361736,13.8685174 L42.8740556,24.6048819 C42.8740556,24.6048819 43.5271701,27.5386528 39.5065312,23.1392847 C42.4047847,29.0898229 46.1674167,30.4133507 46.1674167,30.4133507 L41.5604653,13.6081181 C41.551816,13.6375625 41.5205312,13.6660868 41.5361736,13.8685174" id="Fill-19" fill="#BBC4CA"></path>
            <path d="M35.1207813,33.4522014 C34.7455486,32.5692361 34.5931736,31.7606181 34.5931736,31.0388611 C34.5944618,28.4295312 36.5142396,26.9617257 36.5227049,26.9532604 L36.5799375,26.910566 C36.5799375,26.9368819 36.4829549,25.2524757 36.6397465,22.5623576 C35.0964896,24.8352847 31.8246597,30.223066 35.7411389,34.4327014 C35.6783854,34.3449201 35.6215208,34.2657882 35.5685208,34.1888646 C35.3675625,33.8964444 35.2277014,33.6603368 35.1207813,33.4522014" id="Fill-20" fill="#BBC4CA"></path>
            <path d="M39.2126389,35.6373472 C38.5481146,34.4711632 36.8510104,30.7528819 36.5856424,26.9882257 C36.5814097,26.963934 36.5799375,26.9368819 36.5799375,26.910566 L36.5227049,26.9532604 C36.5142396,26.9617257 34.5944618,28.4295312 34.5931736,31.0388611 C34.5931736,31.7606181 34.7455486,32.5692361 35.1207812,33.4522014 C35.2277014,33.6603368 35.3675625,33.8964444 35.5685208,34.1888646 C35.6215208,34.2657882 35.6783854,34.3449201 35.7411389,34.4327014 C35.8140139,34.5261875 35.8981146,34.6124965 35.9893924,34.7107674 C36.6469236,35.4290278 37.762316,36.1721319 39.5893437,36.2512639 C39.5893437,36.2512639 39.4380729,36.0365035 39.2126389,35.6373472" id="Fill-21" fill="#061922"></path>
            <path d="M47.6963194,78.2296563 L47.6963194,78.2296563 C47.6963194,78.2331528 47.6963194,78.2366493 47.6963194,78.2381215 C47.6963194,78.2309444 47.6977917,78.2232153 47.6977917,78.2153021 C47.6977917,78.2130938 47.6977917,78.2110694 47.6963194,78.2095972 C47.6963194,78.2160382 47.6963194,78.2232153 47.6963194,78.2296563" id="Fill-22" fill="#BBC4CA"></path>
            <path d="M44.6755035,69.7389826 C45.3000938,69.7461597 45.7750694,70.3159097 46.1644722,71.1074132 C46.5568194,71.9055417 46.8691146,72.9579965 47.1114792,74.0084271 C47.4140208,75.3170486 47.6079861,76.6241979 47.7136181,77.4223264 C47.7106736,77.7824688 47.7077292,78.0471007 47.6977917,78.2002118 C47.6977917,78.2051806 47.6977917,78.2095972 47.6977917,78.2130938 C47.8302917,77.3474271 49.0998993,68.9557604 44.8352396,67.7743021 C44.8352396,67.7743021 41.8685278,67.0161076 42.0597326,73.1983368 C42.0783194,73.0570035 42.0939618,72.9338889 42.1051875,72.8196076 C43.0794306,70.6309653 43.8937535,69.7560972 44.6755035,69.7389826" id="Fill-23" fill="#BBC4CA"></path>
            <path d="M47.6977917,78.2130937 C47.6977917,78.2130937 47.6977917,78.2138299 47.6977917,78.2153021 C47.6977917,78.2160382 47.6977917,78.2160382 47.6977917,78.2180625 C47.6977917,78.2180625 47.6977917,78.2160382 47.6977917,78.2130937" id="Fill-24" fill="#061922"></path>
            <path d="M47.7136181,77.4223264 C47.6963194,77.1606389 47.4140208,75.3170486 47.1114792,74.0084271 C46.8691146,72.9579965 46.5568194,71.9055417 46.1644722,71.1074132 C45.7750694,70.3159097 45.3000938,69.7461597 44.6755035,69.7389826 C43.8937535,69.7560972 43.0794306,70.6309653 42.1051875,72.8196076 C42.0453785,72.9786076 42.0597326,72.9994028 42.0597326,73.1983368 L43.5286424,76.4352014 C43.5286424,76.4352014 44.3729618,67.7691493 47.6906146,78.1873299 C47.693559,78.2073889 47.693559,78.2232153 47.6963194,78.2296563 C47.6963194,78.2232153 47.6963194,78.2160382 47.6963194,78.2095972 C47.6977917,78.2110694 47.6977917,78.2130938 47.6977917,78.2153021 C47.6977917,78.2138299 47.6977917,78.2130938 47.6977917,78.2130938 C47.6977917,78.2095972 47.6977917,78.2051806 47.6977917,78.2002118 C47.7077292,78.0471007 47.7447187,77.8551597 47.7136181,77.4223264" id="Fill-25" fill="#061922"></path>
        </g>
    </g>
</svg>