<?xml version="1.0" encoding="UTF-8"?>
<svg width="150px" height="150px" viewBox="0 0 150 150" version="1.1" xmlns="http://www.w3.org/2000/svg" xmlns:xlink="http://www.w3.org/1999/xlink">
    <!-- Generator: Sketch 55 (78076) - https://sketchapp.com -->
    <title>GSW</title>
    <desc>Created with Sketch.</desc>
    <defs>
        <polygon id="path-1" points="0 0 106 0 106 105.988958 0 105.988958"></polygon>
    </defs>
    <g id="GSW" stroke="none" stroke-width="1" fill="none" fill-rule="evenodd">
        <g id="Group" transform="translate(22.000000, 22.000000)">
            <g id="Group-3">
                <mask id="mask-2" fill="white">
                    <use xlink:href="#path-1"></use>
                </mask>
                <g id="Clip-2"></g>
                <path d="M106,53 C106,82.2710903 82.2710903,106 53,106 C23.7289097,106 0,82.2710903 0,53 C0,23.7289097 23.7289097,0 53,0 C82.2710903,0 106,23.7289097 106,53" id="Fill-1" fill="#1D428A" mask="url(#mask-2)"></path>
            </g>
            <path d="M53,99.375 C47.2189514,99.375 41.5998472,98.3238333 36.3602083,96.3127778 C36.1456319,93.1405069 35.9373125,89.3495347 35.7378264,85.2037569 L31.5070278,83.7635556 L31.5088681,94.1169583 C30.8338542,93.7632569 30.1676736,93.3922569 29.5099583,93.0043264 L29.5121667,83.1746667 L31.5070278,83.2457014 L31.5070278,83.3108472 L33.6697222,83.322441 L37.5751597,83.4606458 L86.3804306,85.1894028 C86.1857292,85.3910972 85.9908437,85.5931597 85.7920938,85.7922778 C77.0329236,94.5512639 65.3872778,99.375 53,99.375 L53,99.375 Z M17.4215417,82.7466181 L24.7079375,83.004625 C24.5625556,85.2552847 24.4031875,87.3929514 24.2287292,89.3752986 C22.8315903,88.2659792 21.4881875,87.072375 20.2077222,85.7922778 C19.2283264,84.8128819 18.3011944,83.7952083 17.4215417,82.7466181 L17.4215417,82.7466181 Z M25.6821806,60.0125625 C25.5287014,65.8966667 25.3115486,71.9717917 25.0185764,77.6269653 L21.0270139,77.7613056 L25.6821806,60.0125625 Z M25.9788333,39.7525764 C25.9711042,43.8486667 25.9206806,48.779875 25.817625,54.0577917 L19.5882847,77.8095208 L15.2864514,77.9545347 L25.9788333,39.7525764 Z M9.8414375,70.0302986 C8.77334028,67.3217778 7.96361806,64.5094653 7.42404861,61.6239097 C9.13771528,60.2598958 11.5495833,58.041441 14.4233611,54.5841111 L9.8414375,70.0302986 Z M10.686125,72.033625 L16.7288611,51.6646944 C19.1734861,48.4121875 21.8676528,44.3249306 24.6968958,39.2155833 L13.866125,77.9103681 C12.6611111,76.0255556 11.6000069,74.0619792 10.686125,72.033625 L10.686125,72.033625 Z M31.4989306,41.5762917 L31.4996667,44.4290903 L29.3391806,44.4290903 L29.3391806,47.0790903 L31.5000347,47.0790903 L31.5004028,49.9318889 L29.3391806,49.9318889 L29.3391806,52.5818889 L31.5011389,52.5818889 L31.5022431,57.9326806 L29.3391806,57.9326806 L29.3391806,60.5830486 L31.5026111,60.5830486 L31.5037153,66.0862153 L29.3391806,66.0862153 L29.3391806,68.7362153 L31.5040833,68.7362153 L31.5059236,77.4087083 L29.5132708,77.4760625 L29.5224722,37.1342292 L31.4981944,37.1342292 L31.4985625,38.9262917 L29.3391806,38.9262917 L29.3391806,41.5762917 L31.4989306,41.5762917 Z M88.8699583,75.4797292 L87.6307153,72.7097431 C89.6748958,73.5345556 91.7326944,74.3240347 93.8022708,75.0814931 C93.7590243,75.160625 93.7154097,75.2393889 93.6719792,75.3185208 L88.8699583,75.4797292 Z M90.4514931,80.3630903 C90.1379097,80.7904028 89.8169653,81.2129306 89.4877396,81.6306736 L35.5780903,80.5747222 L35.5552708,80.0550278 L90.4514931,80.3630903 Z M39.027875,77.1558542 L35.3830208,77.2784167 C35.1596111,71.9423472 34.9523958,66.3353889 34.7665278,60.9069375 L39.027875,77.1558542 Z M44.6506597,76.9666736 L40.4415764,77.108375 L34.5589444,54.6790694 C34.3727083,48.8961806 34.2144444,43.5475972 34.0933542,39.2461319 L44.6506597,76.9666736 Z M50.9282153,76.7557778 L46.07025,76.9191944 L35.3789722,38.7201806 C36.3164097,39.7536806 37.2766667,40.763625 38.2634236,41.7463333 C39.2991319,42.7794653 40.3602361,43.7864653 41.4404792,44.77175 L50.9282153,76.7557778 Z M56.7530625,76.5599722 L52.3533264,76.7079306 L43.3959583,46.514125 C44.02975,47.0651042 44.6686944,47.6094583 45.3135278,48.1468194 C46.4452986,49.0886736 47.5943681,50.0088125 48.7585278,50.9098125 L56.7530625,76.5599722 Z M62.7527361,76.3582778 L58.1833264,76.5117569 L50.6518056,52.3489097 C52.3934444,53.6481458 54.1663681,54.9043194 55.9676319,56.1192708 L62.7527361,76.3582778 Z M68.5566042,76.1632083 L64.1914653,76.3096944 L57.8384583,57.3599861 C58.8093889,57.9926736 59.7873125,58.6146875 60.7729653,59.2245556 L62.8013194,60.4678472 L63.0747847,60.6283194 L68.5566042,76.1632083 Z M74.8790625,75.9501042 L70.0023264,76.114625 L64.9187431,61.7069062 C65.2400556,61.8936944 65.5584236,62.0858194 65.8834167,62.2657986 L66.9224375,62.8440139 C67.6162222,63.2278958 68.3059583,63.6195069 69.0034236,63.9963958 L70.6132986,64.8473403 L74.8790625,75.9501042 Z M79.9630139,69.4230069 C81.8879444,70.2986111 83.8283333,71.1414583 85.7808681,71.9530208 L87.3811736,75.5301528 L82.5901944,75.6909931 L79.9630139,69.4230069 Z M81.1153958,75.7406806 L76.3380347,75.9015208 L72.4624097,65.8134861 L73.2220764,66.1944236 L75.3494375,67.2595764 C76.0623611,67.6059167 76.7811736,67.9408472 77.4970417,68.2820347 C77.6998403,68.3773611 77.9044792,68.4701111 78.1076458,68.5654375 L81.1153958,75.7406806 Z M20.2077222,20.2077222 C28.9670764,11.4487361 40.6127222,6.625 53,6.625 C65.3872778,6.625 77.0329236,11.4487361 85.7920937,20.2077222 C94.5512639,28.9670764 99.375,40.6130903 99.375,53 C99.375,59.6629097 97.977125,66.1101389 95.3241806,72.0100694 C89.702684,70.1142153 84.1632639,67.9739722 78.7414375,65.5657847 C78.0299861,65.2466806 77.3152222,64.9342014 76.6059792,64.6103125 L74.4903958,63.6117778 L73.4326042,63.1126944 L72.38475,62.5922639 L70.2908819,61.5477222 C69.5967292,61.1932847 68.9103056,60.8237569 68.2190972,60.4623264 L67.1833889,59.9179722 C66.8381528,59.7368889 66.5006458,59.5418194 66.1583542,59.3552153 L64.1115972,58.2212361 L62.0895,57.0452986 C56.7103681,53.88775 51.5274097,50.3886458 46.6418403,46.5148611 C44.2016319,44.5752083 41.8331944,42.5442778 39.5781181,40.3977778 C38.4500278,39.3256319 37.3539583,38.2210972 36.29175,37.0885903 C36.0271181,36.8048194 35.7621181,36.5210486 35.5048472,36.2310208 C35.2438958,35.9443056 34.9880972,35.6539097 34.7356111,35.3609375 C34.4805486,35.0698056 34.2346875,34.7731528 33.9895625,34.4765 C33.9799931,34.4647222 33.9700556,34.4525764 33.9608542,34.4407986 C33.8688403,31.0344444 33.8187847,28.9994653 33.8187847,28.9994653 L31.4963542,28.4525347 L31.4970903,31.5640764 L29.5235764,31.5640764 L29.5243125,28.2972153 L27.0344167,28.8894167 L27.0535556,30.0760278 L25.8897639,30.7094514 C25.9217847,31.6836944 25.9457083,32.9556944 25.9607986,34.4713472 C25.0193125,36.1147153 14.7398889,53.8682431 7.05415278,59.3298194 C6.77185417,57.2492014 6.625,55.1361944 6.625,53 C6.625,40.6130903 11.4487361,28.9670764 20.2077222,20.2077222 L20.2077222,20.2077222 Z M87.6660486,18.3339514 C78.4061389,9.07440972 66.0950486,3.975 53,3.975 C39.9049514,3.975 27.5938611,9.07440972 18.3339514,18.3339514 C9.07440972,27.5938611 3.975,39.9049514 3.975,53 C3.975,66.0950486 9.07440972,78.4061389 18.3339514,87.6660486 C27.5938611,96.9255903 39.9049514,102.025 53,102.025 C66.0950486,102.025 78.4061389,96.9255903 87.6660486,87.6660486 C96.9254062,78.4061389 102.024816,66.0950486 102.024816,53 C102.024816,39.9049514 96.9254062,27.5938611 87.6660486,18.3339514 L87.6660486,18.3339514 Z" id="Fill-4" fill="#FDB927"></path>
        </g>
    </g>
</svg>