<?xml version="1.0" encoding="UTF-8"?>
<svg width="150px" height="150px" viewBox="0 0 150 150" version="1.1" xmlns="http://www.w3.org/2000/svg" xmlns:xlink="http://www.w3.org/1999/xlink">
    <!-- Generator: Sketch 55 (78076) - https://sketchapp.com -->
    <title>HOU</title>
    <desc>Created with Sketch.</desc>
    <defs>
        <polygon id="path-1" points="0.01201849 0.000200308166 97.9146379 0.000200308166 97.9146379 129.787673 0.01201849 129.787673"></polygon>
    </defs>
    <g id="HOU" stroke="none" stroke-width="1" fill="none" fill-rule="evenodd">
        <g id="Group" transform="translate(26.000000, 10.000000)">
            <g id="Group-3" transform="translate(-0.000000, 0.000000)">
                <mask id="mask-2" fill="white">
                    <use xlink:href="#path-1"></use>
                </mask>
                <g id="Clip-2"></g>
                <path d="M86.826379,68.714114 C83.8686287,71.0483051 75.9955162,72.8510786 65.6023267,73.7761017 L65.7509553,61.282681 C77.6448536,62.8338675 87.2987057,64.572943 87.2987057,67.4271341 C87.2987057,67.8694145 87.1362558,68.2986749 86.826379,68.714114 L86.826379,68.714114 Z M55.2347766,74.3722188 C53.2445146,74.4311094 51.20698,74.4625578 49.1259784,74.4625578 C46.6756086,74.4625578 44.28453,74.4204931 41.9693683,74.3401695 L42.0627119,71.4439137 C41.8441757,64.1086287 42.300678,54.9112789 42.4499076,45.0869646 C48.3978582,45.7750231 55.5734977,47.4710324 55.4495069,51.6562712 L55.2347766,74.3722188 Z M57.6136364,29.9520801 C58.0979815,33.5464099 57.067396,36.2593837 55.2131433,38.3089368 C51.8972419,41.3143606 46.7002465,42.6838675 42.4739445,43.3052234 C42.5480586,36.5225886 42.4483051,29.4803544 41.86,22.5721263 C50.0163482,23.4430663 57.0153159,25.501433 57.6136364,29.9520801 L57.6136364,29.9520801 Z M31.7324191,73.6857627 C19.030678,72.4608783 10.447473,69.8823112 10.447473,66.6240986 C10.447473,66.3867334 10.5167797,66.1587827 10.6491834,65.9386441 C13.6251618,63.8444222 22.7516025,62.5239908 31.8910632,61.1530817 C31.8784438,64.7341911 31.8249615,68.6389985 31.7087827,72.9356086 L31.7324191,73.6857627 Z M65.7625732,60.2653159 L65.9005855,48.6480431 C65.8863636,43.1958552 60.2204468,42.2820493 56.0358089,42.350755 C58.8421263,41.4221263 62.2195223,39.8362866 64.6662866,37.1928197 C67.2310324,34.824376 69.0594453,31.4884438 68.7437596,26.8072419 C68.2101387,18.9289214 58.3583821,15.0046841 42.0276579,16.5883205 C41.7596456,16.6145609 41.4928351,16.6414022 41.2270262,16.669245 C40.4602465,10.8472881 39.2690139,5.20761171 37.4520185,0.000200308166 L36.6441757,0.803836672 C34.4732357,7.53699538 33.1758398,12.9074576 32.4216795,17.8895223 C22.6744838,19.5693066 15.8459784,21.8041448 15.8459784,21.8041448 L15.0413405,22.6083821 C15.0413405,22.6083821 22.9228659,21.8934823 31.9062866,22.020077 C30.9073498,32.232188 31.9247149,41.9327119 31.8932666,60.2575039 C17.3819414,59.8486749 4.64795069,62.2597843 1.53436055,66.135547 C0.510986133,66.9786441 -0.0330508475,67.9046687 0.00160246533,68.8979969 C0.158644068,73.3396302 13.3541448,77.4193066 31.8984746,78.9771032 L32.68849,104.164453 L33.4941294,103.358213 L34.7973344,86.2787365 C34.8025424,85.9993066 34.8357935,85.7619414 34.8882743,85.5612327 C35.277473,85.6137134 35.6462404,86.1112789 35.6462404,86.9794145 L36.219322,109.473621 L37.0271649,108.669584 L38.4096918,90.3626194 C38.405886,89.9545917 38.4511556,89.6178737 38.5272727,89.3488598 C38.9196764,89.4171649 39.281433,89.9924499 39.2515871,91.0234361 L39.8907704,114.474114 L40.6950077,113.670478 L41.8007088,79.5413713 C43.9327889,79.6084746 46.1073344,79.6457319 48.3207396,79.6457319 C50.6649461,79.6457319 52.9734977,79.6052696 55.2351772,79.5301541 L56.3551002,115.111895 L57.160339,114.308259 L58.1168105,95.685208 C58.1188136,95.3122342 58.1604777,95.000755 58.2287827,94.748567 C58.5947458,94.8320955 58.9310632,95.3773344 58.9288598,96.3386133 L59.8905393,122.455593 L60.693775,121.651957 L61.6690755,99.0878428 C61.6800924,98.7657473 61.7273652,98.4937288 61.7998767,98.2687827 C62.2641911,98.2635747 62.7327119,98.8178274 62.7543451,99.8950847 L63.556379,129.799692 L64.3606163,128.992851 L65.5334206,78.9168105 C81.3822034,77.5336826 93.4137134,74.3365639 96.3951002,70.6633128 C97.3852234,69.8318336 97.9146379,68.9699076 97.9146379,68.0943606 C97.6914946,63.2178582 83.0309399,59.4510632 65.7625732,60.2653159 L65.7625732,60.2653159 Z" id="Fill-1" fill="#9EA2A2" mask="url(#mask-2)"></path>
            </g>
            <path d="M65.6021263,73.7759014 L65.761772,60.373282 C78.0176271,61.9539137 88.1021418,63.7102157 88.1021418,66.6238983 C88.1021418,69.9646379 78.9206163,72.5908783 65.6021263,73.7759014 M41.969168,74.3399692 L42.0631125,71.4443143 C41.8377658,63.8878891 42.329923,54.3564253 42.4633282,44.197396 C48.5442835,44.8235593 56.3827427,46.4781048 56.2525424,50.8524345 L56.0308012,74.3493837 C53.7917565,74.4240986 51.4842065,74.4629584 49.1257781,74.4629584 C46.6754083,74.4629584 44.28453,74.4208937 41.969168,74.3399692 M10.4472727,66.6238983 C10.4472727,63.6142681 21.5653775,62.0232203 32.6967026,60.3496456 C32.6846841,63.9299538 32.6310015,67.8335593 32.5154237,72.1275655 L32.5669029,73.7638829 C19.4076579,72.5730508 10.4472727,69.95302 10.4472727,66.6238983 M58.4166718,29.1488444 C59.7445146,39.0032049 49.6930508,42.2439908 42.4739445,43.305624 C42.5510632,36.230339 42.4408937,28.8720185 41.782681,21.6789522 C50.3097997,22.4948074 57.796718,24.5385516 58.4166718,29.1488444 M97.9150385,68.0947612 C97.6912943,63.2176579 83.0313405,59.4514638 65.7627735,60.2651156 L65.9003852,48.6484438 C65.8809553,41.4597843 56.0382126,42.1600616 52.7191063,42.6001387 C56.5918644,41.9000616 69.5425886,38.665886 68.7437596,26.8072419 C68.2101387,18.9287211 58.3581818,15.0044838 42.0274576,16.5883205 C41.7596456,16.6145609 41.4926348,16.6418028 41.2270262,16.6690447 C40.4600462,10.8470878 39.2688136,5.2074114 37.4518182,-1.13686838e-13 C35.1801233,7.04223421 33.8626965,12.5941757 33.1247612,17.7701387 C23.0029892,19.460339 15.8457781,21.8045455 15.8457781,21.8045455 C15.8457781,21.8045455 23.7273035,21.0896456 32.7109245,21.2168413 C31.6961633,31.5817874 32.7602003,41.419322 32.6973035,60.282943 C15.5306934,59.6784129 0.627966102,63.0205547 0.808243451,68.0947612 C0.962080123,72.5361941 14.1587827,76.618074 32.7051156,78.1764715 L33.4941294,103.358012 L34.7973344,86.2791371 C34.8365948,84.1608783 36.450678,84.3561787 36.450678,86.1755778 L37.0269646,108.669985 L38.4094915,90.3624191 C38.3878582,87.8922188 40.1159168,88.0087982 40.0572265,90.2202003 L40.6954083,113.670478 L41.8273498,78.7165023 C44.2062096,78.8004314 46.643359,78.8446995 49.1257781,78.8446995 C51.4699846,78.8446995 53.7775347,78.8046379 56.0392142,78.7301233 L57.1607396,114.308059 L58.1166102,95.6850077 C58.1302311,93.310755 59.7371032,93.4347458 59.7318952,95.536379 L60.6935747,121.651757 L61.6694761,99.0876425 C61.7435901,96.8704314 63.5163174,96.9691834 63.5561787,99.0876425 L64.3610169,128.99265 L65.5496456,78.2137288 L65.5496456,78.1828814 C84.3028968,76.6296918 97.9150385,72.5436055 97.9150385,68.0947612" id="Fill-4" fill="#CE1141"></path>
        </g>
    </g>
</svg>